<?xml version="1.0" encoding="windows-1252" standalone="no"?>
<svg xmlns="http://www.w3.org/2000/svg" xmlns:xlink="http://www.w3.org/1999/xlink" contentStyleType="text/css" height="265px" preserveAspectRatio="none" style="width:293px;height:265px;background:#FFFFFF;" version="1.1" viewBox="0 0 293 265" width="293px" zoomAndPan="magnify"><defs/><g><line style="stroke:#181818;stroke-width:0.5;stroke-dasharray:5.0,5.0;" x1="49" x2="49" y1="53.2969" y2="215.8281"/><line style="stroke:#181818;stroke-width:0.5;stroke-dasharray:5.0,5.0;" x1="159" x2="159" y1="53.2969" y2="215.8281"/><text fill="#000000" font-family="sans-serif" font-size="14" lengthAdjust="spacing" textLength="82" x="5" y="49.9951">Event Loop</text><ellipse cx="49" cy="21" fill="#E2E2F0" rx="12" ry="12" style="stroke:#181818;stroke-width:0.5;"/><polygon fill="#181818" points="45,9,51,4,49,9,51,14,45,9" style="stroke:#181818;stroke-width:1.0;"/><text fill="#000000" font-family="sans-serif" font-size="14" lengthAdjust="spacing" textLength="82" x="5" y="227.8232">Event Loop</text><ellipse cx="49" cy="247.125" fill="#E2E2F0" rx="12" ry="12" style="stroke:#181818;stroke-width:0.5;"/><polygon fill="#181818" points="45,235.125,51,230.125,49,235.125,51,240.125,45,235.125" style="stroke:#181818;stroke-width:1.0;"/><rect fill="#E2E2F0" height="30.2969" rx="2.5" ry="2.5" style="stroke:#181818;stroke-width:0.5;" width="113" x="103" y="22"/><text fill="#000000" font-family="sans-serif" font-size="14" lengthAdjust="spacing" textLength="99" x="110" y="41.9951">My Function 1</text><rect fill="#E2E2F0" height="30.2969" rx="2.5" ry="2.5" style="stroke:#181818;stroke-width:0.5;" width="113" x="103" y="214.8281"/><text fill="#000000" font-family="sans-serif" font-size="14" lengthAdjust="spacing" textLength="99" x="110" y="234.8232">My Function 1</text><line style="stroke:#181818;stroke-width:1.0;" x1="49" x2="91" y1="84.4297" y2="84.4297"/><line style="stroke:#181818;stroke-width:1.0;" x1="91" x2="91" y1="84.4297" y2="97.4297"/><line style="stroke:#181818;stroke-width:1.0;" x1="50" x2="91" y1="97.4297" y2="97.4297"/><polygon fill="#181818" points="60,93.4297,50,97.4297,60,101.4297,56,97.4297" style="stroke:#181818;stroke-width:1.0;"/><text fill="#000000" font-family="sans-serif" font-size="13" lengthAdjust="spacing" textLength="27" x="56" y="79.3638">wait</text><polygon fill="#181818" points="147.5,122.5625,157.5,126.5625,147.5,130.5625,151.5,126.5625" style="stroke:#181818;stroke-width:1.0;"/><line style="stroke:#181818;stroke-width:1.0;" x1="49" x2="153.5" y1="126.5625" y2="126.5625"/><text fill="#000000" font-family="sans-serif" font-size="13" lengthAdjust="spacing" textLength="69" x="56" y="121.4966">input state</text><line style="stroke:#181818;stroke-width:1.0;" x1="159.5" x2="201.5" y1="155.6953" y2="155.6953"/><line style="stroke:#181818;stroke-width:1.0;" x1="201.5" x2="201.5" y1="155.6953" y2="168.6953"/><line style="stroke:#181818;stroke-width:1.0;" x1="160.5" x2="201.5" y1="168.6953" y2="168.6953"/><polygon fill="#181818" points="170.5,164.6953,160.5,168.6953,170.5,172.6953,166.5,168.6953" style="stroke:#181818;stroke-width:1.0;"/><text fill="#000000" font-family="sans-serif" font-size="13" lengthAdjust="spacing" textLength="120" x="166.5" y="150.6294">execute with state</text><polygon fill="#181818" points="60,193.8281,50,197.8281,60,201.8281,56,197.8281" style="stroke:#181818;stroke-width:1.0;"/><line style="stroke:#181818;stroke-width:1.0;" x1="54" x2="158.5" y1="197.8281" y2="197.8281"/><text fill="#000000" font-family="sans-serif" font-size="13" lengthAdjust="spacing" textLength="79" x="66" y="192.7622">output state</text><!--SRC=[FOmn3i8m40HxlsBbFaNQ2D511O-mh9Doal5PoPgGtsCZYtPcTgDbRfRWRs_9nCEiU8GTabm96pLg2OtxvubxpP5g6VElU9spauJfsbe02uwW7AIvJZINIkmC5DVHC0la8x5IS2ZNuVl9PHhUAl_BBm00]--></g></svg>