<?xml version="1.0" encoding="windows-1252" standalone="no"?>
<svg xmlns="http://www.w3.org/2000/svg" xmlns:xlink="http://www.w3.org/1999/xlink" contentStyleType="text/css" height="571px" preserveAspectRatio="none" style="width:470px;height:571px;background:#FFFFFF;" version="1.1" viewBox="0 0 470 571" width="470px" zoomAndPan="magnify"><defs/><g><line style="stroke:#181818;stroke-width:0.5;stroke-dasharray:5.0,5.0;" x1="49" x2="49" y1="53.2969" y2="522.3594"/><line style="stroke:#181818;stroke-width:0.5;stroke-dasharray:5.0,5.0;" x1="159" x2="159" y1="53.2969" y2="522.3594"/><line style="stroke:#181818;stroke-width:0.5;stroke-dasharray:5.0,5.0;" x1="282" x2="282" y1="53.2969" y2="522.3594"/><line style="stroke:#181818;stroke-width:0.5;stroke-dasharray:5.0,5.0;" x1="404" x2="404" y1="53.2969" y2="522.3594"/><text fill="#000000" font-family="sans-serif" font-size="14" lengthAdjust="spacing" textLength="82" x="5" y="49.9951">Event Loop</text><ellipse cx="49" cy="21" fill="#E2E2F0" rx="12" ry="12" style="stroke:#181818;stroke-width:0.5;"/><polygon fill="#181818" points="45,9,51,4,49,9,51,14,45,9" style="stroke:#181818;stroke-width:1.0;"/><text fill="#000000" font-family="sans-serif" font-size="14" lengthAdjust="spacing" textLength="82" x="5" y="534.3545">Event Loop</text><ellipse cx="49" cy="553.6563" fill="#E2E2F0" rx="12" ry="12" style="stroke:#181818;stroke-width:0.5;"/><polygon fill="#181818" points="45,541.6563,51,536.6563,49,541.6563,51,546.6563,45,541.6563" style="stroke:#181818;stroke-width:1.0;"/><rect fill="#E2E2F0" height="30.2969" rx="2.5" ry="2.5" style="stroke:#181818;stroke-width:0.5;" width="113" x="103" y="22"/><text fill="#000000" font-family="sans-serif" font-size="14" lengthAdjust="spacing" textLength="99" x="110" y="41.9951">My Function 1</text><rect fill="#E2E2F0" height="30.2969" rx="2.5" ry="2.5" style="stroke:#181818;stroke-width:0.5;" width="113" x="103" y="521.3594"/><text fill="#000000" font-family="sans-serif" font-size="14" lengthAdjust="spacing" textLength="99" x="110" y="541.3545">My Function 1</text><rect fill="#E2E2F0" height="30.2969" rx="2.5" ry="2.5" style="stroke:#181818;stroke-width:0.5;" width="112" x="226" y="22"/><text fill="#000000" font-family="sans-serif" font-size="14" lengthAdjust="spacing" textLength="98" x="233" y="41.9951">My Function 2</text><rect fill="#E2E2F0" height="30.2969" rx="2.5" ry="2.5" style="stroke:#181818;stroke-width:0.5;" width="112" x="226" y="521.3594"/><text fill="#000000" font-family="sans-serif" font-size="14" lengthAdjust="spacing" textLength="98" x="233" y="541.3545">My Function 2</text><rect fill="#E2E2F0" height="30.2969" rx="2.5" ry="2.5" style="stroke:#181818;stroke-width:0.5;" width="113" x="348" y="22"/><text fill="#000000" font-family="sans-serif" font-size="14" lengthAdjust="spacing" textLength="99" x="355" y="41.9951">My Function 3</text><rect fill="#E2E2F0" height="30.2969" rx="2.5" ry="2.5" style="stroke:#181818;stroke-width:0.5;" width="113" x="348" y="521.3594"/><text fill="#000000" font-family="sans-serif" font-size="14" lengthAdjust="spacing" textLength="99" x="355" y="541.3545">My Function 3</text><line style="stroke:#181818;stroke-width:1.0;" x1="49" x2="91" y1="84.4297" y2="84.4297"/><line style="stroke:#181818;stroke-width:1.0;" x1="91" x2="91" y1="84.4297" y2="97.4297"/><line style="stroke:#181818;stroke-width:1.0;" x1="50" x2="91" y1="97.4297" y2="97.4297"/><polygon fill="#181818" points="60,93.4297,50,97.4297,60,101.4297,56,97.4297" style="stroke:#181818;stroke-width:1.0;"/><text fill="#000000" font-family="sans-serif" font-size="13" lengthAdjust="spacing" textLength="27" x="56" y="79.3638">wait</text><polygon fill="#181818" points="147.5,107.4297,157.5,111.4297,147.5,115.4297,151.5,111.4297" style="stroke:#181818;stroke-width:1.0;"/><line style="stroke:#181818;stroke-width:1.0;" x1="49" x2="153.5" y1="111.4297" y2="111.4297"/><line style="stroke:#181818;stroke-width:1.0;" x1="159.5" x2="201.5" y1="140.5625" y2="140.5625"/><line style="stroke:#181818;stroke-width:1.0;" x1="201.5" x2="201.5" y1="140.5625" y2="153.5625"/><line style="stroke:#181818;stroke-width:1.0;" x1="160.5" x2="201.5" y1="153.5625" y2="153.5625"/><polygon fill="#181818" points="170.5,149.5625,160.5,153.5625,170.5,157.5625,166.5,153.5625" style="stroke:#181818;stroke-width:1.0;"/><text fill="#000000" font-family="sans-serif" font-size="13" lengthAdjust="spacing" textLength="52" x="166.5" y="135.4966">execute</text><polygon fill="#181818" points="60,163.5625,50,167.5625,60,171.5625,56,167.5625" style="stroke:#181818;stroke-width:1.0;"/><line style="stroke:#181818;stroke-width:1.0;" x1="54" x2="158.5" y1="167.5625" y2="167.5625"/><line style="stroke:#181818;stroke-width:1.0;" x1="49" x2="91" y1="196.6953" y2="196.6953"/><line style="stroke:#181818;stroke-width:1.0;" x1="91" x2="91" y1="196.6953" y2="209.6953"/><line style="stroke:#181818;stroke-width:1.0;" x1="50" x2="91" y1="209.6953" y2="209.6953"/><polygon fill="#181818" points="60,205.6953,50,209.6953,60,213.6953,56,209.6953" style="stroke:#181818;stroke-width:1.0;"/><text fill="#000000" font-family="sans-serif" font-size="13" lengthAdjust="spacing" textLength="27" x="56" y="191.6294">wait</text><polygon fill="#181818" points="270,219.6953,280,223.6953,270,227.6953,274,223.6953" style="stroke:#181818;stroke-width:1.0;"/><line style="stroke:#181818;stroke-width:1.0;" x1="49" x2="276" y1="223.6953" y2="223.6953"/><line style="stroke:#181818;stroke-width:1.0;" x1="282" x2="324" y1="252.8281" y2="252.8281"/><line style="stroke:#181818;stroke-width:1.0;" x1="324" x2="324" y1="252.8281" y2="265.8281"/><line style="stroke:#181818;stroke-width:1.0;" x1="283" x2="324" y1="265.8281" y2="265.8281"/><polygon fill="#181818" points="293,261.8281,283,265.8281,293,269.8281,289,265.8281" style="stroke:#181818;stroke-width:1.0;"/><text fill="#000000" font-family="sans-serif" font-size="13" lengthAdjust="spacing" textLength="52" x="289" y="247.7622">execute</text><polygon fill="#181818" points="60,275.8281,50,279.8281,60,283.8281,56,279.8281" style="stroke:#181818;stroke-width:1.0;"/><line style="stroke:#181818;stroke-width:1.0;" x1="54" x2="281" y1="279.8281" y2="279.8281"/><line style="stroke:#181818;stroke-width:1.0;" x1="49" x2="91" y1="308.9609" y2="308.9609"/><line style="stroke:#181818;stroke-width:1.0;" x1="91" x2="91" y1="308.9609" y2="321.9609"/><line style="stroke:#181818;stroke-width:1.0;" x1="50" x2="91" y1="321.9609" y2="321.9609"/><polygon fill="#181818" points="60,317.9609,50,321.9609,60,325.9609,56,321.9609" style="stroke:#181818;stroke-width:1.0;"/><text fill="#000000" font-family="sans-serif" font-size="13" lengthAdjust="spacing" textLength="27" x="56" y="303.895">wait</text><polygon fill="#181818" points="147.5,331.9609,157.5,335.9609,147.5,339.9609,151.5,335.9609" style="stroke:#181818;stroke-width:1.0;"/><line style="stroke:#181818;stroke-width:1.0;" x1="49" x2="153.5" y1="335.9609" y2="335.9609"/><line style="stroke:#181818;stroke-width:1.0;" x1="159.5" x2="201.5" y1="365.0938" y2="365.0938"/><line style="stroke:#181818;stroke-width:1.0;" x1="201.5" x2="201.5" y1="365.0938" y2="378.0938"/><line style="stroke:#181818;stroke-width:1.0;" x1="160.5" x2="201.5" y1="378.0938" y2="378.0938"/><polygon fill="#181818" points="170.5,374.0938,160.5,378.0938,170.5,382.0938,166.5,378.0938" style="stroke:#181818;stroke-width:1.0;"/><text fill="#000000" font-family="sans-serif" font-size="13" lengthAdjust="spacing" textLength="52" x="166.5" y="360.0278">execute</text><polygon fill="#181818" points="60,388.0938,50,392.0938,60,396.0938,56,392.0938" style="stroke:#181818;stroke-width:1.0;"/><line style="stroke:#181818;stroke-width:1.0;" x1="54" x2="158.5" y1="392.0938" y2="392.0938"/><line style="stroke:#181818;stroke-width:1.0;" x1="49" x2="91" y1="421.2266" y2="421.2266"/><line style="stroke:#181818;stroke-width:1.0;" x1="91" x2="91" y1="421.2266" y2="434.2266"/><line style="stroke:#181818;stroke-width:1.0;" x1="50" x2="91" y1="434.2266" y2="434.2266"/><polygon fill="#181818" points="60,430.2266,50,434.2266,60,438.2266,56,434.2266" style="stroke:#181818;stroke-width:1.0;"/><text fill="#000000" font-family="sans-serif" font-size="13" lengthAdjust="spacing" textLength="27" x="56" y="416.1606">wait</text><polygon fill="#181818" points="392.5,444.2266,402.5,448.2266,392.5,452.2266,396.5,448.2266" style="stroke:#181818;stroke-width:1.0;"/><line style="stroke:#181818;stroke-width:1.0;" x1="49" x2="398.5" y1="448.2266" y2="448.2266"/><line style="stroke:#181818;stroke-width:1.0;" x1="404.5" x2="446.5" y1="477.3594" y2="477.3594"/><line style="stroke:#181818;stroke-width:1.0;" x1="446.5" x2="446.5" y1="477.3594" y2="490.3594"/><line style="stroke:#181818;stroke-width:1.0;" x1="405.5" x2="446.5" y1="490.3594" y2="490.3594"/><polygon fill="#181818" points="415.5,486.3594,405.5,490.3594,415.5,494.3594,411.5,490.3594" style="stroke:#181818;stroke-width:1.0;"/><text fill="#000000" font-family="sans-serif" font-size="13" lengthAdjust="spacing" textLength="52" x="411.5" y="472.2935">execute</text><polygon fill="#181818" points="60,500.3594,50,504.3594,60,508.3594,56,504.3594" style="stroke:#181818;stroke-width:1.0;"/><line style="stroke:#181818;stroke-width:1.0;" x1="54" x2="403.5" y1="504.3594" y2="504.3594"/><!--SRC=[XOwn3i8W54LtlkA6lKDX8yPD9_q8Gjv0Wa0gLVltmYjZIHS89oU7wr8iImgGjm_5WaTAMSA-GK5aknJlVBQLo-U6-nfTyIbYPkErpMD5TKMD5TqLBGG5JDVw9G23h_M5KMFr4q2qipyCw4TkBSJ6PM8uAbJKDbGasiK9TPHWPHpX5UPyXpbPelU8tYFwA5BX7m00]--></g></svg>