<?xml version="1.0" encoding="us-ascii" standalone="no"?><svg xmlns="http://www.w3.org/2000/svg" xmlns:xlink="http://www.w3.org/1999/xlink" contentStyleType="text/css" height="635px" preserveAspectRatio="none" style="width:788px;height:635px;background:#FFFFFF;" version="1.1" viewBox="0 0 788 635" width="788px" zoomAndPan="magnify"><defs/><g><rect fill="#ADD8E6" height="623.7188" style="stroke:#181818;stroke-width:0.5;" width="313" x="153" y="6"/><text fill="#000000" font-family="sans-serif" font-size="13" font-weight="bold" lengthAdjust="spacing" textLength="131" x="244" y="18.0669">named state Foo</text><rect fill="#90EE90" height="623.7188" style="stroke:#181818;stroke-width:0.5;" width="314" x="468" y="6"/><text fill="#000000" font-family="sans-serif" font-size="13" font-weight="bold" lengthAdjust="spacing" textLength="128" x="561" y="18.0669">named state Bar</text><line style="stroke:#181818;stroke-width:0.5;stroke-dasharray:5.0,5.0;" x1="76" x2="76" y1="56.4297" y2="578.4219"/><line style="stroke:#181818;stroke-width:0.5;stroke-dasharray:5.0,5.0;" x1="231" x2="231" y1="56.4297" y2="578.4219"/><line style="stroke:#181818;stroke-width:0.5;stroke-dasharray:5.0,5.0;" x1="388" x2="388" y1="56.4297" y2="578.4219"/><line style="stroke:#181818;stroke-width:0.5;stroke-dasharray:5.0,5.0;" x1="546" x2="546" y1="56.4297" y2="578.4219"/><line style="stroke:#181818;stroke-width:0.5;stroke-dasharray:5.0,5.0;" x1="704" x2="704" y1="56.4297" y2="578.4219"/><text fill="#000000" font-family="sans-serif" font-size="14" lengthAdjust="spacing" textLength="136" x="5" y="53.1279">Named Event Loop</text><ellipse cx="76" cy="24.1328" fill="#E2E2F0" rx="12" ry="12" style="stroke:#181818;stroke-width:0.5;"/><polygon fill="#181818" points="72,12.1328,78,7.1328,76,12.1328,78,17.1328,72,12.1328" style="stroke:#181818;stroke-width:1.0;"/><text fill="#000000" font-family="sans-serif" font-size="14" lengthAdjust="spacing" textLength="136" x="5" y="590.417">Named Event Loop</text><ellipse cx="76" cy="609.7188" fill="#E2E2F0" rx="12" ry="12" style="stroke:#181818;stroke-width:0.5;"/><polygon fill="#181818" points="72,597.7188,78,592.7188,76,597.7188,78,602.7188,72,597.7188" style="stroke:#181818;stroke-width:1.0;"/><rect fill="#E2E2F0" height="30.2969" rx="2.5" ry="2.5" style="stroke:#181818;stroke-width:0.5;" width="148" x="157" y="25.1328"/><text fill="#000000" font-family="sans-serif" font-size="14" lengthAdjust="spacing" textLength="134" x="164" y="45.1279">My Function: add 1</text><rect fill="#E2E2F0" height="30.2969" rx="2.5" ry="2.5" style="stroke:#181818;stroke-width:0.5;" width="148" x="157" y="577.4219"/><text fill="#000000" font-family="sans-serif" font-size="14" lengthAdjust="spacing" textLength="134" x="164" y="597.417">My Function: add 1</text><rect fill="#E2E2F0" height="30.2969" rx="2.5" ry="2.5" style="stroke:#181818;stroke-width:0.5;" width="147" x="315" y="25.1328"/><text fill="#000000" font-family="sans-serif" font-size="14" lengthAdjust="spacing" textLength="133" x="322" y="45.1279">My Function: add 2</text><rect fill="#E2E2F0" height="30.2969" rx="2.5" ry="2.5" style="stroke:#181818;stroke-width:0.5;" width="147" x="315" y="577.4219"/><text fill="#000000" font-family="sans-serif" font-size="14" lengthAdjust="spacing" textLength="133" x="322" y="597.417">My Function: add 2</text><rect fill="#E2E2F0" height="30.2969" rx="2.5" ry="2.5" style="stroke:#181818;stroke-width:0.5;" width="148" x="472" y="25.1328"/><text fill="#000000" font-family="sans-serif" font-size="14" lengthAdjust="spacing" textLength="134" x="479" y="45.1279">My Function: add 1</text><rect fill="#E2E2F0" height="30.2969" rx="2.5" ry="2.5" style="stroke:#181818;stroke-width:0.5;" width="148" x="472" y="577.4219"/><text fill="#000000" font-family="sans-serif" font-size="14" lengthAdjust="spacing" textLength="134" x="479" y="597.417">My Function: add 1</text><rect fill="#E2E2F0" height="30.2969" rx="2.5" ry="2.5" style="stroke:#181818;stroke-width:0.5;" width="148" x="630" y="25.1328"/><text fill="#000000" font-family="sans-serif" font-size="14" lengthAdjust="spacing" textLength="134" x="637" y="45.1279">My Function: add 3</text><rect fill="#E2E2F0" height="30.2969" rx="2.5" ry="2.5" style="stroke:#181818;stroke-width:0.5;" width="148" x="630" y="577.4219"/><text fill="#000000" font-family="sans-serif" font-size="14" lengthAdjust="spacing" textLength="134" x="637" y="597.417">My Function: add 3</text><polygon fill="#181818" points="219,83.5625,229,87.5625,219,91.5625,223,87.5625" style="stroke:#181818;stroke-width:1.0;"/><line style="stroke:#181818;stroke-width:1.0;" x1="76" x2="225" y1="87.5625" y2="87.5625"/><text fill="#000000" font-family="sans-serif" font-size="13" lengthAdjust="spacing" textLength="44" x="83" y="82.4966">input 0</text><line style="stroke:#181818;stroke-width:1.0;" x1="231" x2="273" y1="116.6953" y2="116.6953"/><line style="stroke:#181818;stroke-width:1.0;" x1="273" x2="273" y1="116.6953" y2="129.6953"/><line style="stroke:#181818;stroke-width:1.0;" x1="232" x2="273" y1="129.6953" y2="129.6953"/><polygon fill="#181818" points="242,125.6953,232,129.6953,242,133.6953,238,129.6953" style="stroke:#181818;stroke-width:1.0;"/><text fill="#000000" font-family="sans-serif" font-size="13" lengthAdjust="spacing" textLength="36" x="238" y="111.6294">add 1</text><polygon fill="#181818" points="87,154.8281,77,158.8281,87,162.8281,83,158.8281" style="stroke:#181818;stroke-width:1.0;"/><line style="stroke:#181818;stroke-width:1.0;" x1="81" x2="230" y1="158.8281" y2="158.8281"/><text fill="#000000" font-family="sans-serif" font-size="13" lengthAdjust="spacing" textLength="51" x="93" y="153.7622">return 1</text><polygon fill="#181818" points="376.5,183.9609,386.5,187.9609,376.5,191.9609,380.5,187.9609" style="stroke:#181818;stroke-width:1.0;"/><line style="stroke:#181818;stroke-width:1.0;" x1="76" x2="382.5" y1="187.9609" y2="187.9609"/><text fill="#000000" font-family="sans-serif" font-size="13" lengthAdjust="spacing" textLength="44" x="83" y="182.895">input 1</text><line style="stroke:#181818;stroke-width:1.0;" x1="388.5" x2="430.5" y1="217.0938" y2="217.0938"/><line style="stroke:#181818;stroke-width:1.0;" x1="430.5" x2="430.5" y1="217.0938" y2="230.0938"/><line style="stroke:#181818;stroke-width:1.0;" x1="389.5" x2="430.5" y1="230.0938" y2="230.0938"/><polygon fill="#181818" points="399.5,226.0938,389.5,230.0938,399.5,234.0938,395.5,230.0938" style="stroke:#181818;stroke-width:1.0;"/><text fill="#000000" font-family="sans-serif" font-size="13" lengthAdjust="spacing" textLength="36" x="395.5" y="212.0278">add 2</text><polygon fill="#181818" points="87,255.2266,77,259.2266,87,263.2266,83,259.2266" style="stroke:#181818;stroke-width:1.0;"/><line style="stroke:#181818;stroke-width:1.0;" x1="81" x2="387.5" y1="259.2266" y2="259.2266"/><text fill="#000000" font-family="sans-serif" font-size="13" lengthAdjust="spacing" textLength="51" x="93" y="254.1606">return 3</text><polygon fill="#181818" points="219,284.3594,229,288.3594,219,292.3594,223,288.3594" style="stroke:#181818;stroke-width:1.0;"/><line style="stroke:#181818;stroke-width:1.0;" x1="76" x2="225" y1="288.3594" y2="288.3594"/><text fill="#000000" font-family="sans-serif" font-size="13" lengthAdjust="spacing" textLength="44" x="83" y="283.2935">input 3</text><line style="stroke:#181818;stroke-width:1.0;" x1="231" x2="273" y1="317.4922" y2="317.4922"/><line style="stroke:#181818;stroke-width:1.0;" x1="273" x2="273" y1="317.4922" y2="330.4922"/><line style="stroke:#181818;stroke-width:1.0;" x1="232" x2="273" y1="330.4922" y2="330.4922"/><polygon fill="#181818" points="242,326.4922,232,330.4922,242,334.4922,238,330.4922" style="stroke:#181818;stroke-width:1.0;"/><text fill="#000000" font-family="sans-serif" font-size="13" lengthAdjust="spacing" textLength="36" x="238" y="312.4263">add 1</text><polygon fill="#181818" points="87,355.625,77,359.625,87,363.625,83,359.625" style="stroke:#181818;stroke-width:1.0;"/><line style="stroke:#181818;stroke-width:1.0;" x1="81" x2="230" y1="359.625" y2="359.625"/><text fill="#000000" font-family="sans-serif" font-size="13" lengthAdjust="spacing" textLength="51" x="93" y="354.5591">return 4</text><polygon fill="#181818" points="692,384.7578,702,388.7578,692,392.7578,696,388.7578" style="stroke:#181818;stroke-width:1.0;"/><line style="stroke:#181818;stroke-width:1.0;" x1="76" x2="698" y1="388.7578" y2="388.7578"/><text fill="#000000" font-family="sans-serif" font-size="13" lengthAdjust="spacing" textLength="44" x="83" y="383.6919">input 0</text><line style="stroke:#181818;stroke-width:1.0;" x1="704" x2="746" y1="417.8906" y2="417.8906"/><line style="stroke:#181818;stroke-width:1.0;" x1="746" x2="746" y1="417.8906" y2="430.8906"/><line style="stroke:#181818;stroke-width:1.0;" x1="705" x2="746" y1="430.8906" y2="430.8906"/><polygon fill="#181818" points="715,426.8906,705,430.8906,715,434.8906,711,430.8906" style="stroke:#181818;stroke-width:1.0;"/><text fill="#000000" font-family="sans-serif" font-size="13" lengthAdjust="spacing" textLength="36" x="711" y="412.8247">add 3</text><polygon fill="#181818" points="87,456.0234,77,460.0234,87,464.0234,83,460.0234" style="stroke:#181818;stroke-width:1.0;"/><line style="stroke:#181818;stroke-width:1.0;" x1="81" x2="703" y1="460.0234" y2="460.0234"/><text fill="#000000" font-family="sans-serif" font-size="13" lengthAdjust="spacing" textLength="51" x="93" y="454.9575">return 3</text><polygon fill="#181818" points="534,485.1563,544,489.1563,534,493.1563,538,489.1563" style="stroke:#181818;stroke-width:1.0;"/><line style="stroke:#181818;stroke-width:1.0;" x1="76" x2="540" y1="489.1563" y2="489.1563"/><text fill="#000000" font-family="sans-serif" font-size="13" lengthAdjust="spacing" textLength="44" x="83" y="484.0903">input 3</text><line style="stroke:#181818;stroke-width:1.0;" x1="546" x2="588" y1="518.2891" y2="518.2891"/><line style="stroke:#181818;stroke-width:1.0;" x1="588" x2="588" y1="518.2891" y2="531.2891"/><line style="stroke:#181818;stroke-width:1.0;" x1="547" x2="588" y1="531.2891" y2="531.2891"/><polygon fill="#181818" points="557,527.2891,547,531.2891,557,535.2891,553,531.2891" style="stroke:#181818;stroke-width:1.0;"/><text fill="#000000" font-family="sans-serif" font-size="13" lengthAdjust="spacing" textLength="36" x="553" y="513.2231">add 1</text><polygon fill="#181818" points="87,556.4219,77,560.4219,87,564.4219,83,560.4219" style="stroke:#181818;stroke-width:1.0;"/><line style="stroke:#181818;stroke-width:1.0;" x1="81" x2="545" y1="560.4219" y2="560.4219"/><text fill="#000000" font-family="sans-serif" font-size="13" lengthAdjust="spacing" textLength="51" x="93" y="555.356">return 4</text><!--SRC=[ZO_1QiCm38RlVWhXdWkBvLCPEnJMNjgzWvU8pP3AmLN6-lQBNSzfsA0zwlV_wPFRm1933_hDdQY3rozYWKC8WmPt1kgLUW_Ve3c_diK9mIu43Qk3__YKRJ-I6bmKt_h1JQG-Nc0tSYi-y0PSrq6J5vqkpPsUAJsZY3kOfF-Ojox-clUHY1zKspizB3sSrTG3h5_IsR01pyCeyAJILCCioBtdTOaYoHXvIZC_DTDtAj-eD6NU5DxCl9bvh7nQMtbyr6zl_RYu7wyy5Xvd7XV-Yjk5tbvn-rTlR_G_]--></g></svg>